<?xml version="1.0" encoding="UTF-8" standalone="no"?>
<svg
   version="1.0"
   width="1249.3"
   height="466.7"
   viewBox="0 0 937 350"
   id="svg2"
   sodipodi:docname="logoBig.svg"
   inkscape:version="1.3 (0e150ed6c4, 2023-07-21)"
   xmlns:inkscape="http://www.inkscape.org/namespaces/inkscape"
   xmlns:sodipodi="http://sodipodi.sourceforge.net/DTD/sodipodi-0.dtd"
   xmlns="http://www.w3.org/2000/svg"
   xmlns:svg="http://www.w3.org/2000/svg">
  <defs
     id="defs2" />
  <sodipodi:namedview
     id="namedview2"
     pagecolor="#ffffff"
     bordercolor="#000000"
     borderopacity="0.25"
     inkscape:showpageshadow="2"
     inkscape:pageopacity="0.0"
     inkscape:pagecheckerboard="0"
     inkscape:deskcolor="#d1d1d1"
     inkscape:zoom="0.51384314"
     inkscape:cx="524.47912"
     inkscape:cy="201.42334"
     inkscape:window-width="1366"
     inkscape:window-height="699"
     inkscape:window-x="0"
     inkscape:window-y="0"
     inkscape:window-maximized="1"
     inkscape:current-layer="svg2" />
  <path
     d="m 403.59082,76.810974 a 26.019477,26.913054 0 0 0 -7.19872,0.897102 c 0,1.076522 13.1832,25.746824 15.52496,29.066094 a 67.65064,69.973939 0 0 0 17.08612,14.9816 31.223372,32.295664 0 0 1 8.06604,6.99739 c 0.78058,1.88392 1.21424,2.15305 2.25502,1.25594 0.95405,-0.80739 2.34175,-0.35884 6.67833,2.24276 7.37219,4.48551 11.27511,7.53565 10.66799,8.61218 -0.34693,0.44855 -4.33658,0.80739 -8.93336,0.80739 a 616.6616,637.83937 0 0 0 -46.74832,3.05014 c -0.2602,0.26913 4.16311,9.32986 9.80067,20.18479 l 10.32105,19.73624 3.03561,-0.44855 c 4.24985,-0.53826 19.94827,-1.16623 19.94827,-0.71768 a 149.17833,154.30151 0 0 1 -32.87128,38.93422 c -5.89774,4.48551 -26.97352,16.05812 -30.78971,16.95522 l -2.51522,0.53826 3.38254,3.40899 c 1.82136,1.88391 5.81101,5.11348 8.75989,7.0871 l 5.37735,3.76783 -9.71393,6.01058 a 1150.9282,1190.4541 0 0 1 -10.84145,6.81798 c -0.86732,0.53826 -0.78059,1.16623 0.34692,2.78101 l 1.47444,2.15305 25.67255,-0.44855 a 193.41144,200.0537 0 0 0 54.72763,-6.36943 20029.793,20717.669 0 0 0 83.26233,-18.92884 c 58.63055,-13.72566 72.50761,-16.05813 91.84875,-15.51986 l 11.62204,0.26913 5.89774,-16.14784 c 3.20907,-8.8813 5.89775,-16.86551 5.98448,-17.6729 0.0867,-3.31928 -3.12233,-3.85754 -23.85118,-3.85754 -16.7392,0 -20.90232,-0.35884 -26.01948,-1.70449 a 45.360621,46.918424 0 0 1 -6.8518,-2.42218 c -0.86731,-0.80739 11.27511,-0.44855 18.82076,0.53826 l 4.68351,0.62798 7.11199,-19.64653 c 3.90292,-10.76523 7.02525,-19.82595 7.02525,-20.09508 0,-1.25595 -4.85696,-1.79421 -28.62142,-3.05015 -13.61686,-0.71768 -32.87127,-1.88391 -42.93214,-2.69131 l -27.75411,-1.7942 -12.40261,-0.8971 c -3.556,-0.35884 -33.30493,-13.54624 -51.77876,-22.8761 -30.18259,-15.34043 -45.36062,-26.733625 -51.25837,-38.844499 l -2.08156,-4.216378 -4.59677,0.17942 z m 89.507,111.509746 c 33.65186,5.92087 67.30372,13.63595 64.18138,14.53305 l -10.84145,2.96044 c -5.03043,1.34565 -22.72367,6.54884 -39.46287,11.66232 -47.70238,14.62276 -63.66099,19.19798 -66.26294,19.28769 -0.60712,0 0.52039,-1.88392 2.60195,-4.30609 a 121.77115,125.95309 0 0 0 24.19812,-39.47248 c 1.99482,-5.2929 3.46926,-8.25334 4.33657,-8.25334 0.69386,0 10.32106,1.61479 21.24924,3.58841 z M 856.06953,78.515467 a 151.34662,156.54426 0 0 0 -36.08035,13.007976 l -5.98448,2.960436 -16.479,0.08971 c -15.78515,0.179421 -32.61107,2.153045 -41.63116,4.93406 -25.32562,7.984201 -38.42209,15.878701 -50.73798,30.591171 -6.5916,7.9842 -33.82532,52.74958 -38.07517,62.70741 a 62.967134,65.12959 0 0 0 -6.3314,29.33523 c 0.0867,6.54884 2.34175,13.90508 5.46409,17.76261 0.78058,0.98682 1.73463,3.22957 1.99482,4.93406 0.95405,5.47232 1.04078,5.74146 2.77541,8.70189 2.25503,4.03696 11.62204,8.61218 21.16251,10.49609 1.21424,0.17942 5.72429,1.16623 9.97413,2.24276 a 299.22398,309.50012 0 0 0 10.84145,2.33246 l 13.00974,2.78102 c 32.61108,7.53565 96.61899,-2.51189 127.9291,-19.91566 l 6.93852,-3.76783 c 2.42849,-1.25594 6.24468,-3.85754 8.58643,-5.74145 2.34175,-1.88392 4.42331,-3.40899 4.77024,-3.40899 0.86731,0 10.92818,-10.76522 14.31071,-15.25073 a 83.349057,86.211482 0 0 0 13.79032,-30.95001 c 2.42849,-9.6887 2.68868,-35.16639 0.43366,-42.16378 -1.6479,-5.11349 -21.33597,-54.812919 -24.63177,-62.348574 -3.20907,-7.176814 -5.89775,-9.060728 -13.53013,-9.419569 -3.46926,-0.08971 -7.28545,-0.08971 -8.49969,0.08971 z m -42.49848,84.148143 c 6.93852,5.02377 7.80584,5.47232 18.1269,7.71508 6.07121,1.34565 12.40262,2.78101 14.22398,3.05014 4.07638,0.80739 4.59677,1.97363 3.2958,8.43276 -0.78058,3.94725 -1.56117,5.56203 -3.72946,7.35623 -3.20907,2.69131 -18.21363,12.46972 -19.16768,12.55943 a 217.52283,224.99313 0 0 1 -42.75867,14.80218 266.69964,275.8588 0 0 1 -26.80006,4.03696 276.15338,285.63721 0 0 1 -37.29459,0.53826 l -7.80584,-0.98682 -6.24468,-0.80739 c -0.34692,-0.35884 1.9081,-6.36942 3.20907,-8.61217 l 2.42849,-4.03696 a 154.38223,159.68412 0 0 1 2.42848,-4.30609 c 3.2958,-6.19 19.25442,-23.95262 21.42271,-23.95262 0.43365,0 1.90809,-0.8971 3.38253,-1.88391 10.75471,-7.98421 29.83566,-14.71247 50.39105,-17.76262 15.87188,-2.42217 16.30554,-2.33246 24.89197,3.85754 z M 726.4058,90.536631 c -0.2602,0.448551 -0.0867,0.897102 0.34693,0.897102 0.52039,0 0.95404,-0.448551 0.95404,-0.897102 0,-0.538261 -0.17346,-0.897102 -0.34692,-0.897102 -0.2602,0 -0.69386,0.358841 -0.95405,0.897102 z"
     id="path1"
     style="stroke-width:0.882083" />
  <path
     d="m 60.218885,83.594701 c -12.472492,8.600813 -12.362116,8.374476 -3.863161,13.353895 2.980153,1.810697 4.635793,3.395054 3.863161,3.847734 -2.317897,1.58436 -1.10376,2.71604 8.830083,9.05349 9.933843,6.33743 12.030988,7.24278 12.030988,5.43208 0,-1.58436 20.088444,1.69753 35.761834,5.88477 a 137.97005,141.46075 0 0 1 31.67792,12.56171 c 16.77717,8.60082 32.00906,18.55966 39.62501,25.68928 4.85654,4.52674 16.5564,19.01233 16.5564,20.48351 0,0.56585 -0.88301,0.67902 -1.87639,0.22634 -1.10376,-0.3395 -26.60063,-5.7716 -56.62291,-11.99587 -30.02228,-6.22427 -61.58983,-12.78805 -70.088785,-14.71192 a 116.22596,119.16654 0 0 0 -30.353411,-3.62139 c -12.913997,-0.11317 -15.563021,0.22634 -20.088439,2.26337 A 73.620817,75.483457 0 0 0 7.1280112,164.73658 c 0,1.35803 3.4216568,4.18724 8.4989548,6.90329 4.415042,2.26337 6.070682,2.37654 47.461696,2.71604 30.794915,0.33951 46.247558,0.90535 54.967268,2.15021 23.17897,3.39505 46.79944,7.80863 75.05571,14.03291 l 3.31128,0.79217 -3.86317,0.90536 -43.04665,8.82714 c -40.0665,8.26131 -47.13057,9.95884 -56.954036,13.58024 -7.284818,2.71604 -25.938369,11.31685 -27.814761,12.78805 -2.428273,1.92386 2.20752,4.07407 14.900765,7.12962 28.366642,6.56378 48.234332,4.97942 117.329732,-9.61933 53.31162,-11.31686 85.87255,-15.8436 120.86175,-16.74896 a 157.50661,161.49159 0 0 1 40.17688,2.48972 c 0.55189,-0.56585 -2.31789,-19.465 -3.09053,-20.82303 -0.99338,-1.69753 -20.30918,-7.58229 -31.89867,-9.84566 -7.8367,-1.4712 -14.01776,-1.69753 -33.33356,-1.24486 -13.02438,0.33951 -28.69778,1.47119 -34.76845,2.37654 -17.21867,2.71605 -16.44603,2.94238 -17.9913,-4.75308 -1.43489,-6.79012 -7.39519,-19.69134 -12.03099,-26.02878 a 14.128133,14.485581 0 0 1 -2.42827,-4.07407 c 0.77263,-0.67901 55.96065,10.63785 71.63405,14.71192 21.1922,5.54526 44.15041,13.6934 76.04909,27.3868 5.18767,2.15021 -13.68663,-17.99381 -23.62047,-25.2366 C 324.79025,147.19545 298.07924,138.25513 219.05001,120.714 169.27041,109.62348 165.84875,108.60496 146.7537,98.872462 120.4842,85.405398 99.733507,78.049439 85.494998,77.030922 L 74.457394,76.125573 c -1.986769,-0.339506 -5.960306,1.810698 -14.238509,7.469128 z M 310.33099,247.12332 c -0.99339,0.90535 7.61595,17.42797 9.93384,19.23867 0.99339,0.79218 2.86978,3.28189 4.19429,5.54526 2.42827,4.07407 2.53865,4.07407 3.75279,1.8107 1.54526,-3.05555 1.54526,-9.61933 0,-19.57817 l -1.32452,-7.80863 h -7.94707 c -4.30467,0 -8.27821,0.3395 -8.60933,0.79217 z"
     id="path2"
     style="stroke-width:1.11764" />
  <path
     style="fill:#22896e;fill-opacity:1;stroke-width:1.45299"
     d="m 95.756304,247.74347 c -11.583869,-2.07565 -27.06945,-6.21655 -29.275778,-7.8284 -2.708421,-1.97869 -1.787671,-2.63629 15.915718,-11.36694 15.980571,-7.88102 33.717506,-12.96847 83.555126,-23.96596 37.47868,-8.2703 39.88391,-8.89204 38.8565,-10.04431 -1.16449,-1.30601 -54.99845,-12.84114 -74.52881,-15.96946 -14.55615,-2.33157 -30.505913,-3.32416 -65.856551,-4.09841 -40.336666,-0.88346 -47.4134,-1.3918 -52.302378,-3.75701 -3.1096998,-1.50443 -6.1465338,-3.62912 -6.7485218,-4.72153 -1.404977,-2.54957 5.8130808,-9.43917 15.4381248,-14.73562 6.81485,-3.75007 8.010191,-3.90504 25.382208,-3.29061 16.618633,0.58777 24.538799,2.10509 89.575168,17.16067 39.23953,9.08373 72.73375,16.90025 74.43163,17.37004 5.27705,1.46012 3.62465,-2.91941 -5.75144,-15.24359 -22.91967,-30.12624 -78.01183,-58.69523 -119.062284,-61.74182 -6.212985,-0.46112 -9.645929,-1.8405 -16.46414,-6.615425 -5.389944,-3.774692 -8.769822,-7.228737 -9.02961,-9.227752 -0.231194,-1.778942 -2.511438,-4.460974 -5.145047,-6.05163 -2.601405,-1.571213 -4.721897,-3.564827 -4.712203,-4.430265 0.01857,-1.658852 14.804314,-13.178636 20.937479,-16.312702 4.467098,-2.282693 23.452969,0.171174 36.268975,4.687664 11.13633,3.924564 29.50847,12.488032 42.68726,19.897024 17.16952,9.652558 27.73187,13.195226 73.77309,24.743996 96.28492,24.15163 120.81017,33.52309 145.11313,55.44978 9.20296,8.30317 19.28176,19.86134 18.28955,20.97413 -0.19355,0.21706 -9.90061,-3.74766 -21.57127,-8.81044 -25.29744,-10.97417 -41.36321,-16.6591 -64.44107,-22.80268 -17.08836,-4.54914 -65.65482,-15.54208 -68.66434,-15.54208 -0.87699,0 0.0325,2.91795 2.03831,6.5397 4.90054,8.84852 11.22397,24.20693 12.36459,30.03121 1.52768,7.80079 3.59657,8.76789 14.16841,6.62297 5.07436,-1.02953 23.42642,-2.25067 40.78237,-2.71362 30.58747,-0.81591 32.00766,-0.71927 46.25983,3.14766 25.01415,6.78692 24.58242,6.4067 26.99458,23.77389 0.99757,7.18226 0.86888,8.03945 -1.07424,7.15509 -4.54959,-2.07064 -44.2058,-2.58897 -63.9942,-0.83645 -28.96817,2.5655 -52.37572,6.59697 -103.54076,17.83272 -24.52472,5.38559 -51.26367,10.897 -59.41993,12.24757 -18.28922,3.02845 -41.81342,4.1634 -51.249476,2.47259 z"
     id="path3" />
  <path
     style="fill:#22896e;fill-opacity:1;stroke-width:1.08139"
     d="m 747.40503,277.52621 c -14.10392,-2.03239 -52.31256,-11.06732 -57.80148,-13.6679 -7.22492,-3.42308 -10.59847,-7.02571 -11.49939,-12.28021 -0.40075,-2.33731 -2.05859,-6.72568 -3.6841,-9.75193 -6.11555,-11.38545 -6.30388,-25.99222 -0.53919,-41.81724 3.5706,-9.80187 16.81603,-33.03734 33.87507,-59.42451 13.55344,-20.96465 26.19011,-31.17684 49.90247,-40.32815 14.10914,-5.445119 25.72354,-7.448646 51.20943,-8.833778 23.14841,-1.258096 23.44717,-1.305871 30.35915,-4.854814 11.4433,-5.875518 29.30229,-11.605449 38.18243,-12.250534 10.92535,-0.793659 14.93211,1.004852 18.50493,8.306304 5.07857,10.378521 26.06504,64.707562 27.30352,70.682322 1.60643,7.75021 0.562,33.38804 -1.7233,42.30134 -0.93111,3.6315 -3.88094,11.21807 -6.55516,16.85907 -13.42,28.30791 -44.25038,48.35458 -90.66304,58.95141 -24.88312,5.68126 -60.30401,8.496 -76.87134,6.10862 z m 19.98692,-53.88305 c 33.40897,-2.86594 64.92948,-12.48604 86.01813,-26.25286 11.16169,-7.28642 13.4935,-10.17727 14.18036,-17.5797 l 0.51091,-5.50615 -4.11289,-1.14127 c -2.26215,-0.6277 -7.69945,-1.91195 -12.0829,-2.85389 -11.73707,-2.5221 -14.67392,-3.70901 -22.48716,-9.08798 -6.55721,-4.51431 -7.57466,-4.86854 -13.8146,-4.80979 -7.87253,0.0741 -22.54017,2.55944 -33.81093,5.729 -20.68595,5.81729 -35.00132,14.0947 -46.62355,26.95862 -8.53767,9.44979 -19.28428,26.63137 -19.28428,30.8315 0,2.23685 0.65705,2.5269 7.17296,3.16636 3.94512,0.38718 7.89025,0.86435 8.76695,1.0604 3.57141,0.79861 23.64623,0.50837 35.567,-0.51424 z"
     id="path4" />
  <path
     style="fill:#22896e;fill-opacity:1;stroke-width:1.1032"
     d="m 345.92495,275.89012 c -1.05155,-1.80908 -0.14326,-2.70273 7.64261,-7.51937 4.85979,-3.00646 10.03123,-6.22595 11.49207,-7.15442 3.04748,-1.93688 4.04965,-0.69185 -8.5314,-10.59885 l -6.76553,-5.32754 13.56412,-7.0711 c 18.09708,-9.4342 22.44209,-12.57508 34.01433,-24.58807 9.52373,-9.88645 22.38191,-26.81485 22.38191,-29.46683 0,-0.93756 -3.53661,-1.21539 -12.59947,-0.98981 l -12.59947,0.31362 -10.40309,-19.89587 c -5.7217,-10.94273 -10.24012,-20.06227 -10.04093,-20.26564 0.36157,-0.36917 25.89491,-2.18965 48.09951,-3.42944 6.45527,-0.36042 11.73686,-1.10553 11.73686,-1.65578 0,-2.42107 -15.61175,-12.16172 -19.49211,-12.16172 -1.16066,0 -2.37994,-0.71748 -2.70952,-1.59439 -0.32959,-0.87692 -4.18981,-4.07971 -8.57827,-7.11731 -10.97678,-7.59787 -17.34346,-14.36233 -23.04422,-24.483955 -6.78918,-12.05411 -10.83587,-20.43395 -10.18743,-21.096008 0.30332,-0.309688 5.65377,-0.828943 11.88989,-1.153902 l 11.33841,-0.590833 1.49314,3.680462 c 2.34515,5.780584 13.64592,17.300385 23.41526,23.869104 16.17188,10.873652 51.87943,28.758432 78.15674,39.146232 l 9.32959,3.68813 45.26043,2.85397 c 60.65288,3.82459 74.30638,4.83708 75.0174,5.56304 0.3302,0.33713 -2.73719,9.9097 -6.8164,21.27238 l -7.41675,20.65944 -3.3947,-0.52318 c -8.14562,-1.25536 -19.89783,-1.65621 -21.31812,-0.72711 -1.13086,0.73973 0.0427,1.51447 4.3672,2.88296 4.36469,1.3812 11.49001,2.00315 27.20371,2.37454 11.70956,0.27674 22.94177,0.76616 24.96045,1.08759 3.33207,0.53055 3.615,0.86707 3.06964,3.65106 -0.33039,1.68666 -3.14691,10.16218 -6.25894,18.83451 l -5.65824,15.76784 -16.51791,-0.0187 c -21.79414,-0.0246 -30.38196,1.5375 -122.96844,22.36875 -41.13358,9.25473 -79.21011,17.58214 -84.61453,18.50535 -5.74919,0.98209 -20.92472,1.94521 -36.5753,2.32126 -25.19741,0.60542 -26.81834,0.52361 -27.9425,-1.41039 z m 102.35184,-43.47608 c 52.99312,-15.62608 87.69762,-25.76308 90.72545,-26.50042 6.86716,-1.6723 3.11992,-3.10543 -23.41968,-8.95696 -15.99573,-3.52679 -61.45168,-11.79681 -64.84077,-11.79681 -2.15934,0 -3.48289,2.04034 -9.09778,14.02476 -6.64028,14.17302 -12.26411,23.13166 -21.32351,33.9679 -2.73056,3.2661 -4.96464,6.34456 -4.96464,6.84103 0,1.82165 4.73792,0.73083 32.92093,-7.5795 z"
     id="path5" />
  <path
     style="fill:#22896e;fill-opacity:1;stroke-width:0.412552"
     d="m 311.94845,262.31248 c -1.05213,-1.62643 -2.6353,-3.74586 -3.51815,-4.70985 -0.88286,-0.96399 -2.25435,-2.77378 -3.04777,-4.02175 -2.04825,-3.22173 -6.08922,-11.39159 -6.08922,-12.31093 0,-0.64329 0.42605,-0.81773 2.53583,-1.03826 1.39471,-0.14577 4.6288,-0.26504 7.18689,-0.26504 h 4.65105 l 0.23394,1.13452 c 1.50136,7.28099 2.29088,16.64872 1.72256,20.43847 -0.15728,1.04882 -0.6181,2.31712 -1.02406,2.81846 l -0.73811,0.91151 z"
     id="path6" />
</svg>
