<?xml version="1.0" encoding="UTF-8" standalone="no"?>
<!-- Created with Inkscape (http://www.inkscape.org/) -->

<svg
   width="1827.3123"
   height="374.84561"
   viewBox="0 0 1827.3123 374.84561"
   version="1.1"
   id="svg1"
   inkscape:export-filename="logo2.svg"
   inkscape:export-xdpi="44.444443"
   inkscape:export-ydpi="44.444443"
   xmlns:inkscape="http://www.inkscape.org/namespaces/inkscape"
   xmlns:sodipodi="http://sodipodi.sourceforge.net/DTD/sodipodi-0.dtd"
   xmlns="http://www.w3.org/2000/svg"
   xmlns:svg="http://www.w3.org/2000/svg">
  <sodipodi:namedview
     id="namedview1"
     pagecolor="#ffffff"
     bordercolor="#000000"
     borderopacity="0.25"
     inkscape:showpageshadow="2"
     inkscape:pageopacity="0.0"
     inkscape:pagecheckerboard="0"
     inkscape:deskcolor="#d1d1d1"
     inkscape:document-units="px"
     showguides="true"
     inkscape:export-bgcolor="#ffffff00">
    <sodipodi:guide
       position="1557.5551,320.68845"
       orientation="1,0"
       id="guide1"
       inkscape:locked="false" />
  </sodipodi:namedview>
  <defs
     id="defs1" />
  <g
     inkscape:label="Layer 1"
     inkscape:groupmode="layer"
     id="layer1"
     transform="translate(-34.873283,-53.639885)">
    <path
       d="m 908.81854,78.141227 a 47.667206,44.538955 0 0 0 -13.18794,1.48464 c 0,1.78155 24.15138,42.608933 28.44145,48.102053 a 123.93474,115.80127 0 0 0 31.30146,24.79336 57.200648,53.446743 0 0 1 14.77685,11.58011 c 1.43,3.11774 2.22445,3.56313 4.13114,2.07849 1.7478,-1.33616 4.29005,-0.59385 12.23458,3.71158 13.50572,7.42315 20.65582,12.4709 19.54352,14.25247 -0.6355,0.74233 -7.94449,1.33618 -16.36571,1.33618 a 1129.7129,1055.5731 0 0 0 -85.64206,5.04773 c -0.47669,0.44538 7.62673,15.44017 17.95465,33.40422 l 18.90796,32.66189 5.5612,-0.74231 c 7.78563,-0.89077 36.54486,-1.93002 36.54486,-1.1877 a 273.29199,255.35666 0 0 1 -60.21959,64.43301 c -10.80454,7.42316 -49.415,26.57492 -56.40619,28.05954 l -4.60784,0.89078 6.19676,5.6416 c 3.33669,3.11772 10.64566,8.46241 16.04796,11.72859 l 9.85121,6.23545 -17.79575,9.94703 a 2108.4794,1970.1064 0 0 1 -19.86132,11.28321 c -1.58893,0.89078 -1.43004,1.93002 0.63552,4.60236 l 2.70116,3.56312 47.03165,-0.74232 a 354.32623,331.07289 0 0 0 100.26003,-10.54088 36694.216,34286.086 0 0 0 152.5351,-31.32572 c 107.41,-22.71488 132.8325,-26.57492 168.2651,-25.68413 l 21.2914,0.44538 10.8046,-26.72337 c 5.879,-14.69786 10.8046,-27.91109 10.9635,-29.24725 0.1588,-5.49315 -5.7202,-6.38392 -43.695,-6.38392 -30.6659,0 -38.2926,-0.59385 -47.6672,-2.82079 a 83.09983,77.646241 0 0 1 -12.5524,-4.00851 c -1.5889,-1.33617 20.6558,-0.74232 34.4794,0.89076 l 8.58,1.03926 13.029,-32.51344 c 7.1501,-17.81558 12.8702,-32.81035 12.8702,-33.25574 0,-2.0785 -8.8978,-2.96927 -52.4339,-5.04775 -24.9459,-1.18771 -60.2195,-3.11773 -78.651,-4.45391 l -50.845,-2.96926 -22.7212,-1.48462 c -6.5145,-0.59386 -61.0141,-22.41796 -94.8578,-37.85813 -55.29398,-25.38718 -83.09987,-44.242 -93.90443,-64.284533 l -3.81338,-6.97777 -8.42119,0.29693 z M 1072.7936,262.68095 c 61.6498,9.79855 123.2993,22.5664 117.5792,24.05104 l -19.8613,4.89929 c -9.2157,2.22694 -41.6293,10.8378 -72.2953,19.30021 -87.3899,24.19948 -116.62573,31.7711 -121.39245,31.91957 -1.11223,0 0.95334,-3.11772 4.76672,-7.12623 a 223.08253,208.4423 0 0 0 44.33053,-65.3238 c 3.6545,-8.75933 6.3556,-13.65862 7.9445,-13.65862 1.2712,0 18.908,2.67235 38.9281,5.93854 z M 1737.7513,80.962027 a 277.26425,259.06824 0 0 0 -66.0987,21.527173 l -10.9635,4.89928 -30.1891,0.14846 c -28.9182,0.29692 -59.7429,3.56312 -76.2675,8.16547 -46.3961,13.21322 -70.3887,26.27799 -92.951,50.62595 -12.0757,13.21321 -61.9673,87.29633 -69.7531,103.77574 a 115.35463,107.78427 0 0 0 -11.599,48.54747 c 0.1588,10.8378 4.2901,23.01179 10.0101,29.3957 1.4299,1.6331 3.1778,5.34469 3.6545,8.16547 1.7478,9.05625 1.9066,9.50166 5.0845,14.40094 4.1311,6.68084 21.2913,14.25247 38.7693,17.37019 2.2245,0.29691 10.4869,1.93002 18.2725,3.71158 a 548.17287,512.19797 0 0 0 19.8613,3.86004 l 23.8336,4.60236 c 59.7428,12.4709 177.0041,-4.15697 234.3637,-32.95882 l 12.7113,-6.23545 c 4.4489,-2.07848 11.4401,-6.38392 15.7301,-9.50164 4.2901,-3.11775 8.1036,-5.64161 8.739,-5.64161 1.5889,0 20.0202,-17.81559 26.217,-25.23874 a 152.69395,142.67311 0 0 0 25.2637,-51.2198 c 4.4489,-16.03401 4.9254,-58.19756 0.7944,-69.77767 -3.0189,-8.46243 -39.0871,-90.71101 -45.125,-103.181933 -5.879,-11.87704 -10.8046,-14.99477 -24.787,-15.58862 -6.3556,-0.14846 -13.3468,-0.14846 -15.5711,0.14846 z m -77.8567,139.258453 c 12.7115,8.31393 14.3003,9.05626 33.2083,12.76785 11.1223,2.22692 22.7213,4.60235 26.0581,5.04774 7.4679,1.33616 8.4212,3.26618 6.0379,13.95553 -1.4302,6.53239 -2.8602,9.20471 -6.8323,12.17396 -5.8791,4.45391 -33.3673,20.63641 -35.1149,20.78486 a 398.49786,372.34565 0 0 1 -78.3332,24.49644 488.58888,456.52426 0 0 1 -49.0972,6.68084 505.90795,472.70675 0 0 1 -68.3229,0.89077 l -14.3002,-1.6331 -11.4401,-1.33616 c -0.6357,-0.59386 3.4957,-10.54088 5.8789,-14.25246 l 4.4489,-6.68086 a 282.82543,264.26447 0 0 1 4.449,-7.12622 c 6.0378,-10.24396 35.2738,-39.63968 39.246,-39.63968 0.7944,0 3.4956,-1.48462 6.1967,-3.11771 19.7026,-13.21323 54.6585,-24.34796 92.3155,-29.39572 29.077,-4.0085 29.8715,-3.86003 45.6015,6.38392 z M 1500.2095,100.85609 c -0.4766,0.74233 -0.1586,1.48464 0.6358,1.48464 0.9533,0 1.7476,-0.74231 1.7476,-1.48464 0,-0.890773 -0.3177,-1.484633 -0.6355,-1.484633 -0.4765,0 -1.271,0.59386 -1.7479,1.484633 z"
       id="path1"
       style="fill:#89223d;fill-opacity:1;stroke-width:1.53589" />
    <path
       d="m 156.42982,91.591397 c -27.5544,15.119553 -27.31058,14.721663 -8.53454,23.475083 6.58379,3.18306 10.24147,5.96823 8.53454,6.76401 -5.12071,2.78518 -2.43843,4.77458 19.50756,15.9153 21.94602,11.14069 26.57905,12.73224 26.57905,9.54917 0,-2.78518 44.37971,2.98413 79.00561,10.34495 a 304.80561,248.67665 0 0 1 69.98338,22.08248 c 37.06436,15.11955 70.71491,32.62639 87.5402,45.15969 10.72912,7.95764 36.57665,33.42214 36.57665,36.00836 0,0.99472 -1.95078,1.19367 -4.14536,0.39789 -2.43844,-0.59682 -58.76654,-10.14601 -125.09223,-21.08777 -66.3257,-10.94178 -136.06522,-22.48037 -154.84125,-25.86236 a 256.76823,209.48522 0 0 0 -67.05723,-6.36613 c -28.529803,-0.19895 -34.382071,0.39788 -44.379699,3.97882 A 162.64427,132.69385 0 0 0 39.140638,234.2323 c 0,2.38732 7.559163,7.36085 18.776006,12.13544 9.753788,3.97883 13.411455,4.17777 104.853146,4.77458 68.0326,0.59684 102.17083,1.59152 121.43456,3.7799 51.20735,5.96822 103.39006,13.72694 165.81425,24.66873 l 7.31534,1.39258 -8.53457,1.59155 -95.09936,15.51738 c -88.51552,14.52274 -104.12158,17.50685 -125.82374,23.87298 -16.09373,4.77457 -57.30345,19.89411 -61.44883,22.48036 -5.36457,3.382 4.87691,7.1619 32.91903,12.5333 62.66803,11.5386 106.56005,8.75343 259.20669,-16.91 117.77687,-19.89413 189.71099,-27.85178 267.00967,-29.44333 a 347.96609,283.88925 0 0 1 88.7594,4.37673 c 1.21925,-0.99473 -5.1207,-34.21791 -6.82765,-36.60523 -2.19456,-2.98411 -44.86736,-13.32905 -70.47104,-17.30787 -17.31294,-2.58625 -30.96826,-2.98413 -73.64101,-2.18836 -28.77369,0.59684 -63.3996,2.58623 -76.81103,4.17775 -38.03973,4.77461 -36.3328,5.17248 -39.74665,-8.35552 -3.16999,-11.93648 -16.33758,-34.6158 -26.57905,-45.75649 a 31.212095,25.464488 0 0 1 -5.36458,-7.1619 c 1.70692,-1.19364 123.62916,18.70049 158.25508,25.86238 46.81815,9.74812 97.53778,24.0719 168.00884,48.1438 11.46071,3.77989 -30.23673,-31.63168 -52.18271,-44.36391 -48.03736,-28.05074 -107.04775,-43.7671 -281.64038,-74.603 C 397.34819,137.34791 389.789,135.55742 347.60392,118.44849 289.56892,94.774467 243.72615,81.843287 212.27021,80.052807 l -24.38443,-1.59153 c -4.38923,-0.59682 -13.16761,3.18306 -31.45596,13.13012 z M 708.98144,379.06158 c -2.19462,1.59154 16.82527,30.63697 21.946,33.82006 2.19459,1.39258 6.33996,5.76928 9.2661,9.74811 5.36455,7.16189 5.60842,7.16189 8.2907,3.18306 3.41382,-5.37142 3.41382,-16.91001 0,-34.41685 l -2.92615,-13.72695 H 728.0013 c -9.50994,0 -18.28835,0.59682 -19.01986,1.39257 z"
       id="path2"
       style="fill:#89223d;fill-opacity:1;stroke-width:2.20252" />
    <path
       style="fill:#22896e;fill-opacity:1;stroke-width:2.8634"
       d="m 234.93966,380.15175 c -25.59127,-3.64883 -59.80225,-10.92819 -64.67651,-13.76169 -5.98349,-3.47838 -3.94934,-4.63437 35.16126,-19.98218 35.30453,-13.8542 74.48923,-22.79751 184.5913,-42.13022 82.7985,-14.53854 88.11216,-15.63151 85.84239,-17.6571 -2.5726,-2.29586 -121.50344,-22.57368 -164.65023,-28.07303 -32.15767,-4.09871 -67.39414,-5.8436 -145.49132,-7.20466 -89.112412,-1.55307 -104.746453,-2.44668 -115.547253,-6.60453 -6.870004,-2.64466 -13.57902,-6.37971 -14.908946,-8.30006 -3.103892,-4.48195 12.842362,-16.59332 34.106156,-25.90404 15.055465,-6.59232 17.696245,-6.86476 56.074783,-5.78464 36.71415,1.03325 54.2115,3.70058 197.89087,30.1671 86.6886,15.96845 160.68455,29.70926 164.43553,30.53512 11.65815,2.56678 8.00762,-5.13209 -12.70617,-26.797 -50.63449,-52.95951 -172.34496,-103.1815 -263.03429,-108.53717 -13.72581,-0.81062 -21.30992,-3.23545 -36.37283,-11.6294 -11.90754,-6.6356 -19.37443,-12.70752 -19.94835,-16.22163 -0.51076,-3.127233 -5.54832,-7.842043 -11.36652,-10.638283 -5.74707,-2.76206 -10.43169,-6.26668 -10.41027,-7.78805 0.0411,-2.91613 32.70593,-23.166974 46.25542,-28.67642 9.86877,-4.012796 51.81266,0.300912 80.12598,8.240545 24.60254,6.899062 65.19058,21.952955 94.30537,34.977355 37.93117,16.968443 61.2657,23.196153 162.98068,43.497963 212.71416,42.45662 266.89573,58.93091 320.58621,97.47626 20.33133,14.59631 42.59756,34.91465 40.40555,36.87084 -0.42758,0.38158 -21.87257,-6.58809 -47.65557,-15.48804 -55.88751,-19.29171 -91.38025,-29.28537 -142.36423,-40.08528 -37.75187,-7.99702 -145.04568,-27.32174 -151.69436,-27.32174 -1.93744,0 0.0718,5.12952 4.50308,11.49627 10.82635,15.555 24.79616,42.55385 27.31605,52.79246 3.37497,13.71318 7.9456,15.41324 31.30107,11.64265 11.21035,-1.80983 51.754,-3.95649 90.09705,-4.77033 67.57432,-1.43429 70.71184,-1.2644 102.19794,5.53334 55.26167,11.93086 54.30789,11.26246 59.63687,41.79259 2.20384,12.62583 1.91953,14.13271 -2.37324,12.57807 -10.05102,-3.64002 -97.66014,-4.55121 -141.37699,-1.47041 -63.99694,4.50995 -115.70926,11.59694 -228.74389,31.34849 -54.18038,9.46743 -113.2525,19.15605 -131.27145,21.53024 -40.40483,5.32378 -92.37485,7.31894 -113.22114,4.34661 z"
       id="path3" />
    <path
       style="fill:#22896e;fill-opacity:1;stroke-width:1.88291"
       d="m 1538.6798,410.30891 c -25.8381,-3.36346 -95.8356,-18.31554 -105.8912,-22.61929 -13.236,-5.66493 -19.4161,-11.62699 -21.0667,-20.32277 -0.734,-3.86805 -3.7713,-11.13047 -6.7492,-16.13866 -11.2035,-18.842 -11.5485,-43.01504 -0.9878,-69.20419 6.5412,-16.22132 30.8066,-54.67416 62.0584,-98.34281 24.8297,-34.69482 47.9799,-51.59517 91.4204,-66.73988 25.8477,-9.01123 47.1252,-12.32691 93.8149,-14.61919 42.4075,-2.08204 42.9547,-2.1611 55.6173,-8.034333 20.9641,-9.7235 53.6813,-19.20608 69.9496,-20.27365 20.015,-1.313442 27.3553,1.66295 33.9007,13.74627 9.3037,17.175633 47.7506,107.085843 50.0195,116.973603 2.9429,12.82597 1.0296,55.25454 -3.157,70.00533 -1.7058,6.00984 -7.1099,18.56501 -12.0091,27.90042 -24.5851,46.84731 -81.0658,80.02296 -166.0928,97.55987 -45.5856,9.40203 -110.476,14.06019 -140.827,10.10928 z m 36.6156,-89.17215 c 61.2047,-4.74291 118.9497,-20.66341 157.5836,-43.44639 20.4482,-12.05844 24.72,-16.84257 25.9782,-29.09298 l 0.936,-9.11225 -7.5347,-1.88871 c -4.1443,-1.03879 -14.1053,-3.16413 -22.1356,-4.72296 -21.5022,-4.17388 -26.8822,-6.13812 -41.196,-15.03988 -12.0127,-7.47082 -13.8767,-8.05706 -25.3083,-7.95981 -14.4223,0.12263 -41.2932,4.23566 -61.9408,9.48103 -37.8965,9.62715 -64.1219,23.3256 -85.4136,44.61436 -15.6408,15.63865 -35.3284,44.07278 -35.3284,51.02366 0,3.70181 1.2038,4.18183 13.1407,5.24008 7.2274,0.64076 14.4549,1.43044 16.0608,1.75488 6.5428,1.32163 43.3195,0.84131 65.1581,-0.85103 z"
       id="path4" />
    <path
       style="fill:#22896e;fill-opacity:1;stroke-width:1.92088"
       d="m 803.1757,407.6013 c -1.92642,-2.99388 -0.26244,-4.4728 14.00113,-12.44395 8.90305,-4.97546 18.37702,-10.30344 21.05327,-11.83999 5.58293,-3.20538 7.41888,-1.14495 -15.62938,-17.54027 l -12.39432,-8.81663 24.84921,-11.70211 c 33.15352,-15.61285 41.11351,-20.81076 62.31365,-40.69129 17.44729,-16.36129 41.00323,-44.37642 41.00323,-48.76525 0,-1.55159 -6.47899,-2.01138 -23.08199,-1.63806 l -23.082,0.51901 -19.05826,-32.92607 c -10.48206,-18.10933 -18.75972,-33.20146 -18.39481,-33.53801 0.66239,-0.61095 47.43901,-3.62371 88.11743,-5.67544 11.82593,-0.59647 21.5017,-1.82958 21.5017,-2.7402 0,-4.00667 -28.60043,-20.12668 -35.70919,-20.12668 -2.1263,0 -4.35999,-1.18736 -4.96378,-2.63857 -0.6038,-1.45124 -7.67567,-6.7516 -15.71523,-11.77859 -20.10927,-12.57386 -31.7729,-23.76849 -42.21661,-40.51899 -12.43764,-19.948583 -19.8511,-33.816545 -18.66318,-34.912198 0.55568,-0.512514 10.35761,-1.371838 21.78206,-1.909627 l 20.77176,-0.977773 2.73541,6.090865 c 4.29627,9.56641 24.99907,28.630763 42.89633,39.501463 29.62659,17.99502 95.04217,47.59291 143.18177,64.78388 l 17.0916,6.10356 82.9163,4.7231 c 111.115,6.32939 136.1279,8.00497 137.4304,9.20637 0.605,0.55794 -5.0143,16.39978 -12.4874,35.2041 l -13.5875,34.18973 -6.2189,-0.86583 c -14.9226,-2.07752 -36.4524,-2.74089 -39.0544,-1.20331 -2.0717,1.22421 0.079,2.50633 8.0007,4.77107 7.9959,2.28577 21.0495,3.31507 49.8366,3.92968 21.4516,0.45798 42.0288,1.26793 45.727,1.79988 6.1043,0.87801 6.6226,1.43493 5.6237,6.0422 -0.6054,2.79128 -5.7651,16.81761 -11.4664,31.16961 l -10.3658,26.09451 -30.2605,-0.0309 c -39.9265,-0.0407 -55.6592,2.54443 -225.2759,37.01849 -75.3559,15.31584 -145.11146,29.09704 -155.01226,30.62488 -10.53242,1.62527 -38.33371,3.21916 -67.00527,3.84151 -46.16122,1.0019 -49.13073,0.86652 -51.19017,-2.33409 z m 187.50671,-71.94943 c 97.08249,-25.85992 160.66039,-42.63584 166.20739,-43.85608 12.5805,-2.76753 5.7156,-5.13924 -42.9045,-14.82306 -29.3038,-5.83655 -112.5783,-19.52278 -118.78706,-19.52278 -3.95586,0 -6.38059,3.3766 -16.66696,23.20987 -12.16489,23.45521 -22.46763,38.28104 -39.0643,56.21415 -5.00231,5.40514 -9.09511,10.49975 -9.09511,11.32136 0,3.01469 8.67979,1.20947 60.31054,-12.54346 z"
       id="path5" />
    <path
       style="fill:#22896e;fill-opacity:1;stroke-width:0.718337"
       d="m 740.93138,385.13139 c -1.92749,-2.6916 -4.82782,-6.19909 -6.44518,-7.79442 -1.61739,-1.59533 -4.12994,-4.59038 -5.58347,-6.65567 -3.75235,-5.33172 -11.15533,-18.85217 -11.15533,-20.37362 0,-1.06458 0.78051,-1.35327 4.64559,-1.71823 2.55508,-0.24123 8.47987,-0.43861 13.16625,-0.43861 h 8.52064 l 0.42858,1.87754 c 2.75046,12.04945 4.19684,27.55229 3.15568,33.82403 -0.28813,1.73571 -1.13235,3.83465 -1.87606,4.66432 l -1.3522,1.50848 z"
       id="path6" />
  </g>
</svg>
