<?xml version="1.0" encoding="UTF-8"?>
<svg width="1920" height="1080" xmlns="http://www.w3.org/2000/svg">
 <path d="m909 78a48 45 0 0 0-13 2 572 572 0 0 0 28 48 124 116 0 0 0 31 24 57 53 0 0 1 15 12c2 3 2 4 4 2 2-1 5 0 12 4 14 7 21 12 20 14l-16 1a1130 1056 0 0 0-86 6l18 33 19 33 5-1 37-1a273 255 0 0 1-60 64 364 364 0 0 1-57 28l-4 1 6 6 16 11 10 7-18 10a2109 1970 0 0 1-20 11c-1 1-1 2 1 5l3 3 47-1a354 331 0 0 0 100-10 36694 34286 0 0 0 152-32c108-22 133-26 169-25h21l11-26a429 429 0 0 0 11-30c0-5-6-6-44-6-31 0-38-1-48-3a83 78 0 0 1-12-4c-2-1 21-1 34 1l9 1 13-33a897 897 0 0 0 13-33c0-2-9-3-53-5l-78-4-51-3-23-2c-6 0-61-22-95-38-55-25-83-44-94-64l-4-7h-8zm164 185c61 9 123 22 117 24l-20 5a3605 3605 0 0 0-72 19c-87 24-116 32-121 32l5-7a223 208 0 0 0 44-66c4-8 6-13 8-13l39 6zm665-182a277 259 0 0 0-66 22l-11 4-30 1c-29 0-60 3-77 8-46 13-70 26-93 50a979 979 0 0 0-69 104 115 108 0 0 0-12 49 49 49 0 0 0 10 29 20 20 0 0 1 4 8c1 9 2 10 5 15 4 6 21 14 38 17l19 4a548 512 0 0 0 20 4l23 4c60 13 177-4 235-33l13-6a116 116 0 0 0 15-9 50 50 0 0 1 9-6c2 0 20-18 26-25a153 143 0 0 0 25-52c5-16 5-58 1-69l-45-104c-6-11-11-15-25-15a170 170 0 0 0-15 0zm-78 139c13 8 14 9 33 13l26 5c8 1 9 3 6 14-1 7-3 9-7 12a343 343 0 0 1-35 21 399 372 0 0 1-78 24 489 457 0 0 1-49 7 506 473 0 0 1-69 1l-14-2-11-1c-1 0 3-10 6-14l4-7a283 264 0 0 1 4-7c6-10 36-40 40-40a25 25 0 0 0 6-3c20-13 55-24 92-29 29-4 30-4 46 6zm-160-119 1 1 2-1-1-1-2 1z" stroke-width="1.5359"/>
 <path d="m156 92c-27 15-27 14-8 23 7 3 10 6 8 7-5 3-2 5 20 16s27 13 27 9c0-2 44 3 79 11a305 249 0 0 1 70 22c37 15 70 32 87 45 11 8 37 33 37 36h-4l-126-21-155-26a257 210 0 0 0-67-6c-28 0-34 0-44 4a163 133 0 0 0-41 22c0 3 8 8 19 12 10 4 13 4 105 5 68 1 102 2 121 4 51 6 104 14 166 25l7 1-8 2-95 15c-89 15-104 18-126 24a699 699 0 0 0-62 22c-5 4 5 8 33 13 63 11 107 9 260-17 117-20 189-28 267-29a348 284 0 0 1 88 4c1-1-5-34-7-37a361 361 0 0 0-144-19c-28 0-63 2-76 4-38 5-37 5-40-8-3-12-16-35-27-46a31 26 0 0 1-5-7 1364 1364 0 0 1 326 74c12 4-30-32-52-45-48-28-107-43-282-74a603 603 0 0 1-159-39c-58-23-104-36-136-38l-24-2c-4 0-13 4-32 13zm553 287c-2 2 17 31 22 34l9 10c6 7 6 7 9 3 3-6 3-17 0-35l-3-13h-18a75 75 0 0 0-19 1z" stroke-width="2.2025"/>
 <path d="m235 380c-26-4-60-11-65-14-6-3-4-4 35-20 36-13 75-22 185-42 83-14 88-15 86-17a1311 1311 0 0 0-310-35c-89-2-105-3-116-7a45 45 0 0 1-15-9c-3-4 13-16 34-26 15-6 18-6 56-5 37 1 55 3 198 30l165 30c11 3 8-5-13-26a466 466 0 0 0-263-109 72 72 0 0 1-36-12c-12-6-20-12-20-16-1-3-6-8-12-10l-10-8c0-3 33-23 46-29 10-4 52 0 80 8a807 807 0 0 1 95 35c38 17 61 24 163 44 212 42 266 59 320 97 20 15 43 35 41 37-1 1-22-6-48-15a1065 1065 0 0 0-142-40c-38-8-145-28-152-28-2 0 0 5 4 12 11 15 25 42 28 53 3 13 8 15 31 11a1053 1053 0 0 1 192 1c56 12 55 11 60 42 2 12 2 14-2 12-11-3-98-4-142-1-64 4-116 11-229 31a4921 4921 0 0 1-131 22c-40 5-92 7-113 4z" fill="#22896e" stroke-width="2.8634"/>
 <path d="m1539 410c-26-3-96-18-106-22-13-6-20-12-21-21a63 63 0 0 0-7-16c-11-19-12-43-1-69 7-16 31-55 62-98 25-35 48-52 92-67 25-9 47-12 93-15 43-2 43-2 56-8 21-9 54-19 70-20 20-1 27 2 34 14 9 17 47 107 50 117 3 13 1 55-3 70a199 199 0 0 1-12 28c-25 47-81 80-166 97-46 10-111 14-141 10zm36-89c61-5 119-20 158-43 20-12 25-17 26-29l1-9-8-2-22-5c-21-4-27-6-41-15-12-8-14-8-25-8-15 0-42 4-62 9-38 10-64 24-86 45-15 16-35 44-35 51 0 4 1 4 13 5l16 2a493 493 0 0 0 65-1z" fill="#22896e" stroke-width="1.8829"/>
 <path d="m803 408c-2-3 0-5 14-13l21-12c6-3 8-1-15-17l-13-9 25-12a229 229 0 0 0 103-89c0-2-6-2-23-2l-23 1-19-33a422 422 0 0 1-18-34 2106 2106 0 0 1 109-8c0-4-28-20-35-20-3 0-5-1-5-3l-16-12a119 119 0 0 1-42-40c-13-20-20-34-19-35l22-2 21-1 2 6c5 10 25 29 43 40 30 18 95 47 143 64l17 6 83 5 138 9c0 1-5 17-13 36l-13 34-6-1c-15-2-37-3-39-1-3 1 0 2 8 4 8 3 21 4 49 4l46 2c6 1 7 2 6 6l-12 31-10 26h-30c-40 0-56 3-226 37a8907 8907 0 0 1-155 31 707 707 0 0 1-67 4c-46 1-49 1-51-2zm188-72 166-44c13-3 6-5-43-15a2347 2347 0 0 0-119-20c-4 0-6 4-16 24a231 231 0 0 1-39 56l-10 11c0 3 9 1 61-12z" fill="#22896e" stroke-width="1.9209"/>
 <path d="m741 385a86 86 0 0 0-6-8 59 59 0 0 1-6-6 120 120 0 0 1-11-21l4-1 14-1h8l1 2c2 12 4 28 3 34l-2 5-2 1z" fill="#22896e" stroke-width=".71834"/>
</svg>
